<?xml version="1.0" encoding="UTF-8" standalone="no"?>
<!DOCTYPE svg PUBLIC "-//W3C//DTD SVG 1.1//EN" "http://www.w3.org/Graphics/SVG/1.1/DTD/svg11.dtd">
<svg width="100%" height="100%" viewBox="0 0 93 111" version="1.1" xmlns="http://www.w3.org/2000/svg" xmlns:xlink="http://www.w3.org/1999/xlink" xml:space="preserve" xmlns:serif="http://www.serif.com/" style="fill-rule:evenodd;clip-rule:evenodd;stroke-linejoin:round;stroke-miterlimit:2;">
    <g transform="matrix(1,0,0,1,-104.566,-343.092)">
        <path d="M184.508,447.232L179.413,447.232C178.997,439.141 176.981,431.466 173.681,424.515C175.291,423.872 176.816,423.135 178.271,422.322C181.89,429.938 184.087,438.356 184.508,447.232ZM122.144,389.965L122.144,384.87C144.724,385.939 164.347,398.484 175.306,416.786C173.857,417.602 172.312,418.322 170.666,418.94C160.546,402.369 142.684,391.02 122.144,389.965ZM110.844,447.232L110.844,384.794L115.866,384.794L115.866,447.232L110.844,447.232ZM152.593,350.042C165.171,350.042 174.805,353.194 181.226,359.409C187.618,365.598 190.859,374.499 190.859,385.867C190.859,397.24 187.616,406.166 181.219,412.398C180.964,412.647 180.695,412.882 180.43,413.121C168.322,393.229 146.827,379.656 122.144,378.589L122.144,350.042L152.593,350.042ZM185.6,416.895C193.255,409.436 197.137,398.998 197.137,385.867C197.137,372.734 193.253,362.315 185.592,354.898C177.96,347.511 166.857,343.765 152.593,343.765L115.866,343.765L115.866,378.517L110.844,378.517L110.844,343.092L104.566,343.092L104.566,453.51L122.144,453.51L122.144,396.259C139.795,397.272 155.203,406.77 164.356,420.726C160.778,421.452 156.859,421.826 152.593,421.826L136.545,421.826L136.545,428.103L152.593,428.103C158.079,428.103 163.093,427.541 167.626,426.432C171.198,433.656 173.215,441.781 173.215,450.371L173.215,453.51L190.859,453.51L190.859,450.371C190.859,439.029 188.214,428.295 183.514,418.747C184.232,418.154 184.934,417.544 185.6,416.895Z" style="fill-rule:nonzero;"/>
    </g>
</svg>
