<?xml version="1.0" encoding="UTF-8" standalone="no"?>
<!DOCTYPE svg PUBLIC "-//W3C//DTD SVG 1.1//EN" "http://www.w3.org/Graphics/SVG/1.1/DTD/svg11.dtd">
<svg width="100%" height="100%" viewBox="0 0 229 36" version="1.1" xmlns="http://www.w3.org/2000/svg" xmlns:xlink="http://www.w3.org/1999/xlink" xml:space="preserve" xmlns:serif="http://www.serif.com/" style="fill-rule:evenodd;clip-rule:evenodd;stroke-linejoin:round;stroke-miterlimit:2;">
    <g transform="matrix(1,0,0,1,443.594,-882.77)">
        <path d="M-233.441,917.802C-223.82,917.802 -215.714,909.89 -215.714,900.512C-215.714,891.134 -223.82,883.27 -233.441,883.27C-243.062,883.27 -251.168,891.134 -251.168,900.512C-251.168,909.89 -243.062,917.802 -233.441,917.802ZM-415.509,895.12C-415.509,888.512 -420.848,883.853 -428.087,883.853L-443.094,883.853L-443.094,917.219L-435.96,917.219L-435.96,906.386L-431.634,906.386L-424.004,917.219L-415.849,917.219L-423.859,905.804C-418.858,904.348 -415.509,900.368 -415.509,895.12ZM-326.025,917.219L-318.89,917.219L-318.89,907.894L-314.713,903.426L-304.463,917.219L-295.768,917.219L-309.709,898.326L-296.691,883.853L-305.386,883.853L-318.89,899.152L-318.89,883.853L-326.025,883.853L-326.025,917.219ZM-343.566,917.219L-335.552,917.219L-349.102,883.853L-357.165,883.853L-370.715,917.219L-362.702,917.219L-360.37,911.487L-345.897,911.487L-343.566,917.219ZM-379.417,890.307L-379.417,883.853L-405.108,883.853L-405.108,917.219L-379.417,917.219L-379.417,910.764L-397.924,910.764L-397.924,903.423L-381.165,903.423L-381.165,896.969L-397.924,896.969L-397.924,890.307L-379.417,890.307ZM-287.504,917.219L-259.967,917.219L-259.967,910.764L-277.693,910.764L-260.161,889.288L-260.161,883.853L-287.164,883.853L-287.164,890.307L-270.02,890.307L-287.552,911.783L-287.504,917.219ZM-233.441,911.299C-239.029,911.299 -243.791,906.342 -243.791,900.512C-243.791,894.729 -239.029,889.773 -233.441,889.773C-227.805,889.773 -223.091,894.729 -223.091,900.512C-223.091,906.342 -227.805,911.299 -233.441,911.299ZM-358.088,905.907L-353.134,893.762L-348.18,905.907L-358.088,905.907ZM-435.96,890.405L-428.816,890.405C-425.317,890.405 -422.887,892.252 -422.887,895.12C-422.887,897.987 -425.317,899.835 -428.816,899.835L-435.96,899.835L-435.96,890.405Z" style="fill:none;fill-rule:nonzero;stroke:rgb(249,229,159);stroke-width:1px;"/>
    </g>
</svg>
